<?xml version="1.0" encoding="UTF-8"?>
<svg id="Layer_2" data-name="Layer 2" xmlns="http://www.w3.org/2000/svg" viewBox="0 0 647.29 395.23">
  <defs>
    <style>
      .cls-1, .cls-2, .cls-3, .cls-4, .cls-5, .cls-6, .cls-7, .cls-8, .cls-9, .cls-10, .cls-11, .cls-12, .cls-13, .cls-14, .cls-15, .cls-16, .cls-17, .cls-18, .cls-19, .cls-20, .cls-21, .cls-22 {
        stroke-width: 0px;
      }

      .cls-1, .cls-19 {
        fill: #323230;
      }

      .cls-2, .cls-21 {
        fill: #376a44;
      }

      .cls-3 {
        fill: #9abe49;
      }

      .cls-4 {
        fill: #c1d54c;
      }

      .cls-5 {
        fill: #9dc14a;
      }

      .cls-6 {
        fill: #c2d54a;
      }

      .cls-7 {
        fill: #c1d54d;
      }

      .cls-8 {
        fill: #c0d54a;
      }

      .cls-9 {
        fill: #9dc149;
      }

      .cls-10 {
        fill: #9dbf48;
      }

      .cls-11 {
        fill: #9dc248;
      }

      .cls-12 {
        fill: #9fc248;
      }

      .cls-13 {
        fill: #c0d549;
      }

      .cls-14 {
        fill: #c1d64e;
      }

      .cls-15, .cls-18 {
        fill: #583f37;
      }

      .cls-15, .cls-19, .cls-21 {
        fill-rule: evenodd;
      }

      .cls-16 {
        fill: #c3d646;
      }

      .cls-17 {
        fill: #9dc04a;
      }

      .cls-20 {
        fill: #32312d;
      }

      .cls-22 {
        fill: #c2d54d;
      }
    </style>
  </defs>
  <g id="Layer_1-2" data-name="Layer 1">
    <g>
      <path class="cls-15" d="M455.79,306.93h27.42v-69.15l.7-.62c4.11-3.71,8.28-5.98,12.28-6.65,1.62-.3,4.65-.27,6.03,0,4.98,1.03,7.92,4.52,9.03,10.71.22,1.08.32,65.72.32,65.72h27.42s-.05-64.39-.14-65.58c-.49-6.36-1.81-11.74-4.16-16.5-1.54-3.19-3.35-5.76-5.6-8.03-4.46-4.46-9.57-7-16.17-8.03-1.95-.3-8.11-.35-10.09-.08-3.71.54-6.44,1.33-9.38,2.76-3.25,1.6-6,3.41-8.9,5.81l-1.27,1.05-.08-51.41h-27.42v140.01Z"/>
      <path class="cls-15" d="M181.99,168.14c-9.41.51-17.53,3.79-23.31,9.36-4.62,4.44-7.52,9.63-9.2,16.28-.92,3.73-1.24,7.19-1.24,12.68v3.6h-12.93s.03,13.41.78,14.77c.68,1.22,2.43,2.49,4.44,3.19.43.16,2.33.62,4.19,1.05l3.43.76.08,77.08h27.42l.05-76.94,20.77-.08-.05-19.74-21.61-.08.08-4.25c.03-3.54.11-4.52.32-5.79.95-5.14,3.38-8.47,7.22-9.79,1.76-.62,4.84-1.08,7.3-1.08,2.73,0,5.11-1,6.22-2.65.73-1.11.78-1.41,1.05-9.06.16-3.92.27-7.22.27-7.38,0-.27-.24-.35-2.24-.84-2.84-.68-4.41-.95-7.25-1.08-2.49-.16-2.97-.16-5.81,0Z"/>
      <path class="cls-15" d="M256.68,208.19c-4.35.51-8.33,2.24-12.14,5.33-3.35,2.7-6.71,6.52-9.49,10.76-.54.84-1,1.43-1,1.3-.03-.11-.41-2.35-.87-5-.46-2.65-.92-5.25-1.08-5.81-.62-2.16-1.35-3.22-2.87-3.95-1.7-.84-20.93-.87-20.93-.87v96.98h27.45v-59.53l.68-1.22c1.22-2.19,2.57-4,4.03-5.52,2.76-2.81,5.41-4.33,9.01-5.11,1.84-.38,5.9-.32,8.55.14,2.54.46,4.3.49,5.3.08.92-.32,1.65-1.08,2.03-2,.14-.41,3.87-22.47,3.87-22.56,0-.14-1.84-1.3-2.87-1.76-2.49-1.16-6.33-1.65-9.66-1.27Z"/>
      <path class="cls-15" d="M403.78,208.6c-5.84.51-10.41,1.7-14.93,3.87-7.44,3.54-12.66,9.36-15.12,16.79-1.11,3.35-1.57,6.25-1.57,10.03,0,5.22.78,9.09,2.6,12.87,1.73,3.6,3.87,6.27,6.95,8.76,3.95,3.16,10.01,5.95,19.01,8.76,3.06.95,5.19,1.7,7.14,2.57,3.46,1.51,5.9,3.54,6.63,5.54.95,2.46.43,5.52-1.24,7.55-1.57,1.87-3.98,2.95-7.36,3.35-1.7.19-5.19.08-6.9-.22-2.79-.49-5.81-1.78-10.2-4.38-3.16-1.89-4.06-2.24-5.95-2.33-2.6-.11-4.22.46-5.84,2.08-.89.92-1.35,1.62-4.46,6.79l-3.46,5.76.65.59c3.71,3.35,9.87,6.68,15.96,8.63,8.14,2.62,15.85,3.33,24.18,2.3,11.58-1.46,20.74-6.63,25.91-14.63,1.62-2.52,3.33-6.65,4.06-9.95,1.11-5.14,1.08-11.2-.05-15.42-1.49-5.35-4.92-9.9-10.06-13.28-1.51-1-5.03-2.81-7.3-3.76-2.33-1-5.6-2.19-10.14-3.73-7.38-2.49-10.36-3.92-12.36-6-2.54-2.68-2.33-7.06.49-9.71,2.03-1.92,5.14-2.76,9.6-2.57,3.89.14,6.27.84,12.17,3.52,4.06,1.81,4.62,2,6.49,1.97,1.22,0,1.65-.08,2.3-.32,1.43-.54,1.97-1.27,5.79-7.49l3.41-5.57-1.16-1.14c-6.11-5.92-14.55-9.71-24.69-11.06-1.78-.27-8.52-.38-10.55-.19h.03Z"/>
      <path class="cls-15" d="M315.4,208.98c-8.68.51-16.39,3.16-23.07,7.84-2.62,1.89-5.6,4.57-7.79,7.09-5.92,6.9-9.71,15.77-11.09,26.1-.3,2.19-.41,9.38-.22,12.33,1.03,14.23,5.98,25.96,14.36,34.16,3.49,3.41,6.54,5.52,11.01,7.68,4.54,2.22,9.2,3.57,14.71,4.3,2.87.41,10.44.35,13.98-.08,7.11-.81,12.55-2.38,17.93-5.08,5.27-2.68,9.82-6.19,13.36-10.44l.57-.68-4.3-5.6c-2.49-3.22-4.54-5.81-4.92-6.11-1.62-1.33-4.6-1.54-7.19-.54-.46.19-2.35,1.16-4.16,2.16-6.65,3.62-9.74,4.71-14.52,4.98-5.6.32-10.01-.73-13.87-3.3-3.68-2.43-6.17-5.9-7.82-10.79-.78-2.33-1.49-5.6-1.76-8.11l-.11-.84s54.44-.05,54.9-.14c1.73-.32,2.92-1.35,3.49-3,.92-2.7,1.05-9.76.27-15.82-1.11-8.57-4.33-16.39-9.2-22.45-1.11-1.35-3.92-4.16-5.33-5.27-5.81-4.62-13.28-7.49-21.45-8.22-2.24-.22-5.71-.27-7.79-.16ZM323.13,229.34c2.08.46,3.76,1.27,5.63,2.62,2.87,2.11,4.87,5.49,5.71,9.71.32,1.7.68,5.08.54,5.44-.05.16-34.24.19-34.24.19l.08-.7c.14-1.08.95-4.19,1.41-5.52.57-1.62,1.7-3.89,2.57-5.25,1.03-1.51,3.41-3.84,4.76-4.62,1.92-1.11,3.6-1.68,5.98-2.08,1.7-.27,6-.16,7.55.19l.03.03Z"/>
      <path class="cls-2" d="M452.08,0h31.16v150.15h-31.16V0Z"/>
      <path class="cls-21" d="M50.17,2.54c-8.57.73-15.79,2.87-22.45,6.63-10.22,5.79-17.34,14.52-20.47,25.15-1.14,3.87-1.6,7.33-1.6,11.74,0,8.25,1.24,14.25,4.19,20.04,1.84,3.68,3.62,6.09,6.46,8.9,3.79,3.79,7.14,5.95,13.17,8.63,4.68,2.06,9.06,3.54,19.12,6.44,5.49,1.57,6.92,2.06,9.68,3.16,3.98,1.62,6.3,3,8.55,5.17,3,2.89,4,5.33,3.98,9.82,0,5.17-1.33,8.84-4.11,11.66-3.27,3.25-8.65,5-15.44,5-5.98,0-10.2-.97-16.04-3.68-2.65-1.24-3.68-1.81-10.79-6.14-3.27-1.97-4.76-2.46-7.41-2.33-1.76.05-2.81.35-4.11,1.14-1.76,1.03-2.11,1.46-7.68,10.25-2.84,4.49-5.17,8.22-5.22,8.3,0,.08.54.68,1.22,1.3,9.84,8.98,25.99,15.85,41.41,17.58,4.73.51,10.82.51,15.63,0,16.34-1.78,29.61-9.49,37.27-21.61,1.22-1.92,2.97-5.44,3.87-7.73,3.35-8.36,4.3-18.99,2.57-27.86-1.24-6.44-4.57-12.63-9.3-17.36-6.25-6.22-14.79-10.36-33.24-16.04-8.65-2.68-12.22-4.16-15.93-6.6-1.84-1.22-3.95-3.27-4.73-4.57-2.24-3.87-1.73-10.03,1.16-14.12.84-1.16,2.81-2.97,4.06-3.68,1.89-1.11,4.06-1.84,6.95-2.38,1.08-.19,2.14-.22,5.38-.24,3.65,0,4.19.03,5.76.32,2.08.35,4.11.97,6.6,1.95,2.65,1.03,3.68,1.51,8.33,4,2.3,1.24,4.62,2.38,5.22,2.6,1.97.65,4.41.57,6.06-.22.95-.46,2.33-1.7,3.25-2.92.35-.49,2.6-4.52,4.98-8.92l4.3-8.03-.57-.51c-3.46-3.08-7.19-5.52-11.98-7.87-7.52-3.68-14.82-5.73-24.1-6.76-2.3-.24-11.68-.38-14.01-.19h.03Z"/>
      <path class="cls-21" d="M130.11,3.03c-3.27.54-6.27,2.11-8.82,4.65-2.6,2.6-4.16,5.63-4.68,9.01-1.14,7.44,2.92,14.39,10.22,17.5,3.49,1.51,7.9,1.65,11.68.38,5.98-1.97,10.49-6.98,11.52-12.74.24-1.43.24-3.76,0-5.3-.68-4.08-3.33-8.17-6.82-10.6-1.3-.89-3.76-2.08-5.06-2.43-2.46-.68-5.65-.87-8.06-.46Z"/>
      <path class="cls-21" d="M395.91,44.25c-.22.03-.97.11-1.7.19-4.46.49-9.55,2.08-13.6,4.19-4.19,2.16-7.76,4.81-11.47,8.47-.97.97-1.81,1.7-1.84,1.62,0-.08-.57-1.89-1.19-3.98-.65-2.11-1.38-4.25-1.6-4.76-.78-1.65-1.95-2.68-3.81-3.38,0,0-.68-.32-.89-.35-5.33-1-21.69-.08-21.69-.08v144.26h31.16s.03-47.09.05-47.09c.08,0,.54.35,1.05.76,2.73,2.22,7.33,4.79,10.36,5.84,2.79.95,5.79,1.49,9.79,1.68,4.95.27,10.09-.27,14.31-1.51,12.12-3.57,21.88-12.66,27.56-25.69,3.65-8.41,5.33-16.93,5.33-27.32,0-14.31-2.81-26.1-8.52-35.62-4.92-8.25-12.25-14.04-20.47-16.23-3.19-.84-4.27-.97-8.55-1.03-2.11,0-4.06,0-4.27.03ZM392.91,68.29c2.52.65,4.6,1.87,6.25,3.62,2.46,2.62,4.25,6.65,5.33,12.14,1.62,8.06,1.43,20.47-.41,27.75-1.78,7.09-4.84,11.93-9.14,14.6-4.33,2.7-10.68,3.22-16.55,1.38-3.19-1.03-5.33-2.3-7.9-4.73l-1.24-1.16v-44.16l1.14-1.3c3.54-4.06,6.52-6.11,10.85-7.49,2.68-.84,4.46-1.08,7.84-1.03,2.22.05,2.7.08,3.87.38h-.03Z"/>
      <path class="cls-21" d="M221.47,44.73c-3.38.38-7.3,1.54-10.6,3.16-3.73,1.84-6.68,3.98-10.17,7.33-.92.92-1.7,1.6-1.76,1.54-.03-.05-.46-1.46-.95-3.11-.51-1.65-1.11-3.41-1.38-3.89-.59-1.11-1.57-2.11-2.73-2.7-1.7-.89-1.46-.89-13.04-.89h-10.47v103.99h31.16v-75.32l.81-.76c3.46-3.19,7.65-5.38,11.52-6.03,1.7-.27,5.14-.22,6.73.14,5.65,1.24,8.36,4.19,9.57,10.52,0,0,.26,1.15.3,1.54,1.67,17.4.08,69.91.08,69.91h31.13s.08-69.05.32-70.15c.84-4.22,2.52-7.09,5.38-9.22,2.62-2,5.49-2.92,9.14-2.92,7.17.03,11.58,3.33,13.17,9.95.68,2.84.76,72.37.76,72.37h31.13s-.05-70.13-.46-73.62c-1.3-10.55-5.3-18.82-11.68-24.18-4.79-4-10.82-6.49-18.34-7.49-2.62-.35-10.2-.35-12.71,0-8.71,1.22-15.28,4.11-20.99,9.22-2.11,1.84-4.52,4.84-5.92,7.3-.46.81-.68,1-.68.65,0-.27-1.92-4.11-2.73-5.41-2.7-4.35-6.52-7.9-10.6-9.82-2.3-1.08-4.98-1.81-7.82-2.14-1.43-.16-6.65-.14-8.17.03h-.03Z"/>
      <path class="cls-2" d="M117.35,46.17h31.16v103.96h-31.16V46.17Z"/>
      <path class="cls-21" d="M578.06,46.41c-2.73-.06-4.87,2.7-5.71,4.92-.19.51-1,2.73-1.76,4.92-.81,2.22-18.63,51.3-18.66,51.2-6.73-18.69-17.9-47.84-19.04-49.74-.92-1.54-2.52-2.84-4.08-3.38-1.6-.54-31.16-.49-31.16-.49l39.19,87.14-22.58,47.03s25.75-.11,26.94-.38c2.35-.54,4.11-1.84,5.41-4,.43-.73,58.54-136.42,58.9-137.25-.32.01-26.64.04-27.45.03Z"/>
      <path class="cls-19" d="M627.89,11.82c-5.92.59-11.17,4.25-13.93,9.71-2,3.98-2.35,8.98-.89,13.31,1.97,6,6.79,10.28,13.01,11.66,2.03.46,5.25.46,7.28,0,4.44-.97,8.33-3.54,10.76-7.11,2.11-3.06,2.97-5.73,3.11-9.36.08-2.52-.14-4.22-.84-6.27-.87-2.57-2.08-4.6-3.98-6.6-3.76-3.92-9.09-5.87-14.52-5.33ZM632.3,13.5c8.01,1.3,13.79,8.38,13.44,16.44-.3,7.09-5.08,12.98-12.06,14.87-1.22.35-1.51.38-3.95.38s-2.76-.03-3.98-.38c-10.95-2.97-15.58-15.58-9.11-24.77,3.46-4.92,9.66-7.52,15.63-6.54h.03Z"/>
      <path class="cls-19" d="M622.29,28.72v9.68h3.92v-8.11h.92c1.14.03,1.81.16,2.41.59.57.38,1.65,1.81,3.81,5.06l1.65,2.46h4.71l-1.65-2.6c-2.22-3.52-2.95-4.46-4.06-5.27l-.92-.68.97-.24c1.76-.46,2.84-1.3,3.57-2.79.38-.84.41-1,.38-2.33,0-1.57-.19-2.22-.92-3.3-.27-.38-.76-.87-1.11-1.11-1.27-.87-1.51-.87-7.9-.92l-5.76-.08v9.66l-.03-.03ZM633,22.72c.73.43,1.08,1.22,1,2.19-.08,1.22-.78,1.95-1.97,2.16-.32.05-1.81.11-3.22.11h-2.62v-4.87l3.16.05c3,.05,3.14.05,3.62.38l.03-.03Z"/>
      <g>
        <path class="cls-18" d="M44.2,359.22c-1.98,1.78-4.96,2.67-8.92,2.67h-7.11v14.43h-3.53v-33.85h10.64c3.93,0,6.9.89,8.9,2.66,2,1.78,3,4.13,3,7.07s-.99,5.25-2.97,7.02ZM43.55,352.2c0-2.26-.65-3.97-1.96-5.13-1.31-1.16-3.41-1.74-6.3-1.74h-7.11v13.66h7.11c5.51,0,8.26-2.26,8.26-6.78Z"/>
        <path class="cls-18" d="M81.9,376.32l-8.72-14.14h-6.5v14.14h-3.53v-33.85h10.59c3.93,0,6.91.9,8.95,2.71,2.03,1.81,3.05,4.18,3.05,7.12,0,2.45-.73,4.54-2.19,6.27-1.46,1.73-3.62,2.85-6.48,3.37l9.08,14.38h-4.23ZM66.68,359.41h7.11c2.76,0,4.83-.64,6.23-1.94,1.39-1.29,2.09-3.02,2.09-5.18s-.68-3.95-2.02-5.16c-1.35-1.21-3.46-1.82-6.35-1.82h-7.06v14.09Z"/>
        <path class="cls-18" d="M106.35,345.22v12.64h13.36v2.81h-13.36v12.83h14.86v2.81h-18.4v-33.9h18.4v2.81h-14.86Z"/>
        <path class="cls-18" d="M172.67,342.9v33.42h-3.53v-26.69l-12.4,26.69h-2.57l-12.4-26.59v26.59h-3.53v-33.42h3.73l13.46,28.96,13.46-28.96h3.78Z"/>
        <path class="cls-18" d="M194.3,342.46v33.85h-3.53v-33.85h3.53Z"/>
        <path class="cls-18" d="M215.77,342.46v21.31c0,3.36.83,5.84,2.5,7.46,1.66,1.61,3.94,2.42,6.83,2.42s5.15-.8,6.78-2.4c1.62-1.6,2.44-4.09,2.44-7.48v-21.31h3.53v21.26c0,4.3-1.18,7.52-3.55,9.69-2.37,2.16-5.45,3.25-9.25,3.25s-6.88-1.08-9.25-3.25c-2.37-2.16-3.55-5.39-3.55-9.69v-21.26h3.53Z"/>
        <path class="cls-18" d="M290.21,342.9v33.42h-3.53v-26.69l-12.4,26.69h-2.57l-12.4-26.59v26.59h-3.53v-33.42h3.73l13.46,28.96,13.46-28.96h3.78Z"/>
        <path class="cls-18" d="M367.66,359.22c-1.98,1.78-4.96,2.67-8.92,2.67h-7.11v14.43h-3.53v-33.85h10.64c3.93,0,6.9.89,8.9,2.66,2,1.78,3,4.13,3,7.07s-.99,5.25-2.97,7.02ZM367,352.2c0-2.26-.65-3.97-1.96-5.13-1.31-1.16-3.41-1.74-6.3-1.74h-7.11v13.66h7.11c5.51,0,8.26-2.26,8.26-6.78Z"/>
        <path class="cls-18" d="M405.35,376.32l-8.72-14.14h-6.5v14.14h-3.53v-33.85h10.59c3.93,0,6.91.9,8.95,2.71,2.03,1.81,3.05,4.18,3.05,7.12,0,2.45-.73,4.54-2.19,6.27-1.46,1.73-3.62,2.85-6.48,3.37l9.08,14.38h-4.23ZM390.13,359.41h7.11c2.76,0,4.83-.64,6.23-1.94,1.39-1.29,2.09-3.02,2.09-5.18s-.68-3.95-2.02-5.16c-1.35-1.21-3.46-1.82-6.35-1.82h-7.06v14.09Z"/>
        <path class="cls-18" d="M433.23,374.45c-2.66-1.47-4.75-3.52-6.28-6.15-1.53-2.63-2.29-5.61-2.29-8.93s.76-6.31,2.29-8.94c1.53-2.63,3.62-4.68,6.28-6.15,2.65-1.47,5.61-2.2,8.87-2.2s6.26.73,8.92,2.2c2.65,1.47,4.74,3.52,6.24,6.15,1.51,2.63,2.27,5.61,2.27,8.94s-.76,6.3-2.27,8.93c-1.51,2.63-3.59,4.68-6.24,6.15-2.66,1.47-5.63,2.21-8.92,2.21s-6.22-.74-8.87-2.21ZM449.16,371.96c2.08-1.16,3.73-2.83,4.93-5.01,1.21-2.18,1.82-4.71,1.82-7.58s-.6-5.39-1.82-7.56c-1.21-2.16-2.85-3.83-4.93-4.99-2.09-1.16-4.44-1.74-7.06-1.74s-4.98.58-7.06,1.74c-2.09,1.16-3.73,2.83-4.94,4.99-1.21,2.16-1.82,4.68-1.82,7.56s.6,5.4,1.82,7.58c1.21,2.18,2.85,3.85,4.94,5.01,2.08,1.16,4.44,1.74,7.06,1.74s4.97-.58,7.06-1.74Z"/>
        <path class="cls-18" d="M496.53,344.5c2.79,1.35,4.92,3.31,6.4,5.86,1.48,2.55,2.21,5.59,2.21,9.1s-.74,6.5-2.21,9.03c-1.48,2.54-3.61,4.47-6.4,5.81-2.79,1.34-6.13,2.01-10.03,2.01h-10.43v-33.85h10.43c3.9,0,7.24.68,10.03,2.03ZM497.72,369.8c2.57-2.47,3.86-5.91,3.86-10.34s-1.29-7.93-3.86-10.43c-2.57-2.5-6.31-3.75-11.22-3.75h-6.9v28.24h6.9c4.9,0,8.64-1.24,11.22-3.71Z"/>
        <path class="cls-18" d="M525.11,342.46v21.31c0,3.36.83,5.84,2.5,7.46,1.66,1.61,3.94,2.42,6.83,2.42s5.15-.8,6.78-2.4c1.62-1.6,2.44-4.09,2.44-7.48v-21.31h3.53v21.26c0,4.3-1.18,7.52-3.55,9.69-2.37,2.16-5.45,3.25-9.25,3.25s-6.88-1.08-9.25-3.25c-2.37-2.16-3.55-5.39-3.55-9.69v-21.26h3.53Z"/>
        <path class="cls-18" d="M565.79,350.43c1.51-2.63,3.57-4.68,6.2-6.15s5.55-2.2,8.77-2.2c3.93,0,7.3.9,10.1,2.69,2.81,1.79,4.85,4.32,6.13,7.58h-4.13c-1.01-2.29-2.55-4.09-4.61-5.38-2.06-1.29-4.56-1.94-7.48-1.94-2.59,0-4.92.58-6.98,1.74s-3.69,2.83-4.86,5.01c-1.18,2.18-1.77,4.71-1.77,7.58s.59,5.39,1.77,7.56c1.18,2.16,2.79,3.83,4.86,4.99,2.07,1.16,4.39,1.74,6.98,1.74,2.92,0,5.42-.64,7.48-1.91,2.07-1.28,3.61-3.04,4.61-5.3h4.13c-1.28,3.23-3.33,5.73-6.15,7.51-2.82,1.78-6.18,2.66-10.08,2.66-3.22,0-6.15-.73-8.77-2.2-2.62-1.47-4.68-3.51-6.2-6.13-1.51-2.61-2.27-5.58-2.27-8.91s.76-6.31,2.27-8.94Z"/>
        <path class="cls-18" d="M617.6,345.22v12.64h13.36v2.81h-13.36v12.83h14.86v2.81h-18.4v-33.9h18.4v2.81h-14.86Z"/>
      </g>
      <rect class="cls-18" x=".7" y="320.01" width="646.59" height="3.33"/>
      <rect class="cls-18" x=".7" y="391.89" width="646.59" height="3.33"/>
      <g>
        <path class="cls-1" d="M44.69,280.44c-.33-3.8,5.88-.55,6.76-.51,2.45,0,4,2.28,5.19,4.04.82,1.2,2.15,1.74,3.61,1.65,1.91-.14,4.67-.19,6.43-.35,1.47-.27.35-1.74-.09-2.54-.71-1.14-1.49-2.3-2.37-3.31-1.48-1.75-3.8-3.07-5.86-4.34-3.76-2.33-7.53-4.2-11.31-6.45-3.04-1.77-5.1-3.79-6.88-6.73-1.22-1.67-2.49-.51-2.9,1.04-1.09,5.03,2.46,9.99,5.62,13.87.85,1.19,3.54,2.97,4.03,4.05.13,1-2.74-.63-3.28-1.06-2-1.52-3.64-3.7-5.03-5.8-2.95-4.35-4.55-9.27-1.1-13.61,1.24-1.7,1.09-2.4-.95-3.01-1.71-.52-3.68-1.03-5.42-1.63-4.67-1.61-10.78-4.12-10.66-9.74.08-1.7,1-3.39,1.29-5.03.75-5.72-6.23-7.57-10.04-10.16-3.64-2.15-4.21-6.24-1.01-9.14,2.76-2.31,6.72-3.06,8.7-6.3,3.66-5.23-3.85-6.18-2.39-11.2,1.89-5.77,8.95-5.49,13.8-6.89,1.28-.37,2.48-.8,3.82-.9,1.58-.13,3.14.36,4.49-.3,1.66-1.03,1.62-3.58,3.42-4.68,4.31-2.67,9.91-.41,13.64,2.39,2.11,1.38,4.36,4.31,7.13,3.52,1.53-.47,2-2.3,1.83-3.8-.17-1.77-.52-3.64.1-5.37,1.48-4.7,7.08-6.28,11.46-4.57,4.08,1.38,7,4.86,9.19,8.38,1.92,3.39,4.04,2.89,7.5,2.88,3.34.15,7.25,1.55,8.24,5.01.48,1.49.12,3.13,0,4.65-.35,2.64,2,3.9,3.85,5.32,3.59,2.69,4.28,6.84,3.75,11.04-.27,2.23.04,3.18,2.19,3.86,3.55,1.11,5.49,3.72,5.67,7.48.5,8.45-6.48,10.8-4.46,14.81,1.69,2.99,2.17,5.59.57,8.85-.94,2.01-2.66,3.54-3.94,5.31-.91,1.29-1.16,2.71-.95,4.27.14,1.16.4,2.35.34,3.54-.27,4.92-4.01,9.73-8.83,11.05-1.82.54-3.73.57-5.58.84-3.3.36-6.06,2.56-7.9,5.33-3.47,4.99-3.72,10.67-2.96,16.49.13,2.23.73,4.64-.01,6.79-1.08,3.16-7.3,3.73-9.55,2.08-2.15-1.9-1.15-5.62-1.06-8.22.3-3.33.25-6.68-.59-9.91-1.26-5.01-3.64-7.47-9.04-6.45-1.62.21-3.25.79-4.87.8-2.71,0-2.83-3.15-4.39-4.74-1.01-1.13-2.59-1.45-4.04-1.61-.63-.07-2.39.05-3.46-.2-.66-.16-1.72-.76-1.72-.76Z"/>
        <path class="cls-10" d="M48.27,269.02c4.39,2.32,9.18,3.97,13.09,7.12,3.03,2.34,5.19,5.47,7.33,8.59.1.17.29.59.08.7-.66.32-8.07-.13-11.7.82-.7.18-1.4-3.68-2.61-4.86-1.1-1.07-2.5-1.15-3.99-1.19-.78-.02-1.82-.14-2.26-.18-1.93-.18-3.59-.9-4.78-2.35-3.45-4.17-8.89-10.99-5.99-16.48.3-.57,2.02-2.41,2.42-1.24.61,4.47,4.73,7.13,8.41,9.08Z"/>
        <path class="cls-5" d="M38.05,229.88c1.99,1.03,4.42-2.12,6.78-1.3.57.19,1.08.66,1.48,1.11,4.1,4.53,6.61,10.35,11.1,14.55,1.59,2.13,4.67-.97,6.15.19,2.09,2.52,3.23,5.68,4.64,8.62,3.58,7.41,12.85,35.82,7,41.66-.63.72-.54,1.3-.65,2.2-.17,2.93-.19,5.99-.23,8.93.03.91-.09,1.92.29,2.77.08.31-.22.29-.38.14-.3-.23-.33-.74-.33-1.12-.05-3.63.08-7.25-.07-10.88-.36-8.89-3.82-17.38-8.06-25.1-4.52-12.74-12.2-24.57-23.3-32.52-1.92-1.38-4.05-2.46-6.26-3.34-1.29-.44-2.53-1.07-3.89-1.12-.84,0-2.11,0-2.97.14-.35.07-.53.49-.28.65,2.03.96,5.59,1.88,7.71,3.32,10.74,7.32,18.8,18.61,25.43,29.72.44.99,1.17,2.49.19,2.5-5.32-.41-17.64-4.84-16.32-11,.2-.92,1.91-2.24.69-3.05-2.94-2-12.6-9.68-15.78-12.59-.28-.23-.55-.54-.56-.94-.05-.61.39-1.5.42-1.85.03-.23-.16-.24-.52-.11-.86.33-1.64.93-1.17,1.92.98,2.9,3.23,5.17,5.74,6.85.86.67,5.01,3.15,4.55,4.24-.98.68-3.76-.23-4.97-.48-4.79-1.21-14.82-5.12-11.57-11.47.59-1.5,1.46-3.12,1-4.74-.25-1.05-.49-2.42-1.47-2.88-.32-.15,4.72.31,5.44.22.73.08.76-.56.5-1.06-1.21-2.61-4.74-3.36-5.08-6.37-.06-.93.03-2.42.96-3.01,4.1-2.71,10.22,3.16,13.78,5.2h.03Z"/>
        <path class="cls-17" d="M72.11,252.96c-1.21-2.95-1.72-12.11-1.94-16.53-.03-2.55.38-5.17,1.87-7.3,2.48-3.5,6.83-4.79,10.21-7.19,3.02-2.2,4.16-6.06,6.82-8.62,5.23-4.63,13.39-4.03,17.47,1.49,3.51,4.74-2.96,8.11,1.43,13.05-.51.39-12.01,13.49-12.23,13.49-.36-.58.36-6.96.74-9.5.5-3.68,2.04-7.2,4.11-10.21-5.15,1.98-6.9,16.13-6.34,21.11-1.17,4.39-4.35,9.72-6.86,13.5-2.97-3.81-2.19-8.73-1.7-13.2.05-.51-.01-.57-.51-.51-.58.06-1.2.17-1.18.88-.1,1.56-.12,3.12-.08,4.68-.29,3.31,3.28,9.63,2.06,11.64-1.08,2.11-2.02,4.28-2.93,6.46-.83,1.79-3.41,8.22-3.61,8.22-.21,0-6.83-19.88-7.31-21.47Z"/>
        <path class="cls-6" d="M108.28,227.68c1.89-.56,4.43-.07,5.8,1.48,5.07,4.94-3.13,12.36-5.65,17.31-.69,1.05.15,1.7,1.02,2.22,4.85,2.83,2.25,6.74-1.08,9.83-4.06,3.79-9.59,6.98-13.83,10.27-8.01,5.19-12.02,12.64-13.46,22.11-.52,3.62-1,7.28-.72,10.93.15,1.67.77,3.27,1.09,4.91.16.88.3,1.83-.36,2.48-.32.31-.78.5-1.21.62-1.73.47-3.73.74-5.23-.31-1.73-1.15-.4-10.99-.3-13.22.1-2,1.95-3.22,2.28-5.29.19-1.01.11-1.98.04-2.96-1.09-13.72-5.01-28.27-11.13-40.63-.75-1.2-1.42-2.93-2.95-2.93-1.22.06-2.74,1.3-4.08.76-.7-.28-1.37-1.12-1.89-1.66-1.59-1.67-3.09-3.79-4.59-5.81-2.61-3.12-4.96-9.78-9.34-8.72-.88.23-1.91.93-2.74,1.28-1.19.49-2.1-.47-2.93-1.25-.76-.66-1.5-1.2-2.32-1.79-.25-.18-.49-.37-.69-.55-.12-.11-.17-.18-.16-.2.24.02.55.27.8.4,1.09.69,2.55,1.72,3.82,1.99.61.13,1.23.03,1.89-.19,9.4-4.59,11.49,8.2,17.09,13.92,2.44,2.29,4.73-.84,6.32.56,6.52,5.74,8.47,18.81,11.15,28.66.41,1.56.72,3.6,1.4,5,.25.52.6.86.86.86.61-.12.42-1.15.37-1.66-.53-3.68-2.97-16.12-1.93-12.56.15.5.78,2.02,1.08,2.7.76,1.8,1.56,3.84,2.28,5.54.47,1.14.86,1.07,1.35-.06,1.66-3.65,3.39-8.19,5.29-11.73.49-.84.41-2.17.36-3,0-.38.11-.33.26-.07,1.17,2.39.53,4.14-.41,6.42-2.96,7.15-6.17,14.8-6.71,22.71,0,.51.05.86.33.45.35-.58.88-1.64,1.08-2.26.28-.89.38-1.16.6-2.18.19-.91.48-2.08.71-2.92,1.59-5.54,5.25-15.07,6.95-20.49.18-.69.42-1.45.85-2.01.43-.57.99-.85,1.67-1.11,2.37-.88,6.54-1.71,9.32-2.61,1.3-.41,2.21-.84,2.28-1.2.03-.35-.56-.35-.92-.37-1.98-.03-6.65.87-8.25,1.04-.17,0-.47.06-.53-.11-.04-.11.02-.32.17-.62.45-1.06,1.57-2.62,1.9-3.89.17-.73.03-1.48.06-2.27-.08-9.98,9.83-16.73,12.89-17.78h.02Z"/>
        <path class="cls-11" d="M58.82,238.58c.55,1.31.69,2.44-1.02,1.06-4.1-3.2-4.71-9.97-8.7-12.91-1.85-1.47-4.63-1.41-6.87-.85-1.91.55-2.95,1.1-4.6-.33-4.17-3.41-8.88-6.37-14.22-7.28-.54-.14-.97-.35-1.15-.7-.26-.49-.07-1.11.11-1.62.4-1.17.93-2.31,1.22-3.51.33-1.27-.89-2.04-1.86-2.57-.96-.55-1.81-1.11-2.5-1.95-1.47-1.76-1.27-4.06.51-5.57,1.25-1.13,2.95-1.65,4.58-2.02,2.9-.62,5.74-1.64,8.7-1.89,1.86-.08,3.67.09,5.67.18.9.06,2.11.12,2.92.33.03.02,0,.03-.02.04-.14.04-.78.02-1.52.01-.9-.01-1.99-.03-3.07-.02-1.16.06-5.23-.13-5,.82.38.48,1.19.47,1.78.58,1.91.23,3.84.73,5.72.91.96.08,1.91.28,2.86.35,2.69.29,2.07-2.67,3.34-4.15,1.56-1.8,4.38-1.38,6.17.03,1.01.76,1.34,2.07.54,3.11-.92,1.32-2.59,2.24-3.42,3.69-.38.64-1.24,1.5-.81,2.1.26.36-1.06,1.79-1.23,2.07-1,1.66-2.45-2.7-3.43-4.06-.39-.57-.82-1.21-1.29-1.7-.33-.32-.42-.18-.32.3,1.13,3.93,2.9,7.77,4.12,11.66,1.96,5.58-7.73-7.51-8.67-7.84-.31-.29-.62-.58-.94-.85-1.82-1.61-3.87-2.98-6.33-3.45-1.65-.28,0,.79.48,1.1,1.8,1.14,3.63,2.29,5.43,3.44.39.26,1.68,1.11.36.79-1.4-.34-3.12-.81-4.47-.05-.76.45-1.15,1.23-1.73,2.07-.22.32-.48.69-.68,1-.15.25-.22.42-.13.51.12.12.58.03,1.16-.11,2.16-.52,4.94-.87,6.78-.05,1.04.45,1.82,1.28,2.61,2.08,2.91,2.95,5.48,6.25,8.06,9.48.22.25.33.42.51.51.02,0,.03,0,.03-.02,0-.05,0-.09-.03-.15-.02-.16-.73-1.65-.25-1.36.53.44.93,1.12,1.33,1.69.74,1.11,2.29,3.06,2.27,3.22,0,0,5.3,7.64,7.03,11.86Z"/>
        <path class="cls-16" d="M45.87,207.8c.25.12.53.25.79.3.84.18,1.04-.81,1.15-1.43.2-.96.51-1.89,1.05-2.7.74-1.06,2.46-2.19,3.34-3.33.66-.79.8-1.65.06-2.41-1.09-1.26-2.67-1.99-4.28-1.65-1.49.31-3.1,1.35-3.18,2.99-.09.92.15,1.79-.39,2.3-.85.8-2.13.38-3.1.03-2.75-.77-6.59-.89-9.68-1.5-.45-.13-.46-.51-.14-.86.35-.39.93-.61,1.46-.68,1.9-.17,3.62-.16,5.49-.28.45-.03.97-.07,1.42-.15.32-.07.57-.1.72-.36.15-.25.03-.87.02-1.32-.02-1.09.4-2.03.94-2.98.52-.85.95-1.87,1.84-2.23,4.73-1.9,13.96,2.89,17.22,8.05.24,1.12-1.03,1.93-1.51,2.82-.55.82-1.01,1.71-1.26,2.67-1.23,4.6,3.14,7.56,2.47,12.14-.61,6.87-3.21,7.33-2.43,14.52.06.54.1,1.37-.58.85-6.53-6.02-10.35-19.51-12.03-24.91-.05-.15.33,0,.6.13Z"/>
        <path class="cls-12" d="M75.77,200.54c.24.33.2.92.16,1.35-.52,4.65-.97,9.31-1.46,13.96-.05.38-.09,1.28-.43,1.41-.25-.06-.32-.46-.42-.7-.34-.77-1.59-5.82-2.56-5.62-1.42,1.34,2.07,8.06,2.74,9.86.63,1.26.5,2.3-.52,3.34-6.03,5.18-4.15,12.69-4.91,19.69-.28,1.42-1.36.21-1.94-.31-3.56-3.43-6.75-7.72-7.49-12.65-.12-1.17.06-2.4.28-3.62.13-.73.26-1.82.61-2.38.18-.09.21.38.24.56.12,1.17.19,2.37.35,3.55.2,1.17.25,2.37.51,3.54.46,1.25.71-.31.66-.83-.03-4.87-.56-10.37,3.13-13.83.54-.6.65-1.29-.03-1.84-6.75-3.87,2.29-12.75,7.66-14.91.87-.33,2.75-1.26,3.4-.59l.02.02Z"/>
        <path class="cls-6" d="M75.94,201.03c-2.12,1.99-5.77,1.72-7.82,3.3-2.81,2.86-4.9,4.5-5.55,8.86-.15,1.65,2.27,2.62,3.39,3.08.15.06.14.64.12.79-.02.12-.56.76-.7.89-.28.27-2.05,2.07-2.37,2.88-.5,1.16-.83,3.26-.99,4.41-.21,2.14-.02,6.78-.09,8.33.05.3-.68.28-.81,0-1.05-2.23-2.34-6.5-1.44-8.63.82-1.96,1.55-5.31,1.99-7.55.79-4.81-4.91-4.25-1.88-13.91,1.55-3.17,4.89-4.89,8.03-6.4,1.88-.51-.42-2.78-.66-3.93-1.16-2.97-.82-7.53,3.02-8.42,7.52-1.47,13.76,6.59,17.41,12.3.31.48-.09.69-.66.83-2.6.57-5.22,1.1-7.82,1.71-.51.15-.57.08-.57-.43,0-1.02,0-3.21,0-3.28-.84.96-1.69,4.34-2.6,5.2Z"/>
        <path class="cls-9" d="M79.23,198.47c1.01-.48,2.13-.94,3.22-1.25,1.38-.35,2.71-.73,4.06-.73,1.37,0,2.75.3,4.12.11,1.74-.19,3.45-.95,5.22-.73,2.44.27,4.74,3.04,4.76,5.71-.01,1.52-.77,3.02-1.89,3.9-.89.71-1.95,1.06-3.04,1.36-1.66.47-3.38.86-4.93,1.71-4.19,2.14-4.8,8.02-8.45,10.85-.94.73-2.02,1.25-3.09,1.73-1.74.81-2.61.43-2.53-1.71.43-6.09,1.2-13.62,1.74-19.71.11-.97.07-.6.76-1.22,0,0,.02-.02.02-.02Z"/>
        <path class="cls-7" d="M40.24,230.64c-.48.49-1.78-.08-2.31-.4-2.05-1.11-6.81-3.64-9.08-4.76-.59-.28-1.22-.59-1.88-.48-.76.14-1.45.79-1.35,1.69.1.79.5,1.46.99,2.44.83,1.6,2.03,3.59,2.72,5.11.49,1.16.24,1.65-1.03,1.63-.68,0-2.95-.18-3.8-.35-1.27-.26-1.05-.16-2.24-.65-2.61-1.08-4.21-3.95-6.71-5.21-1.22-.63-2.66-1.01-3.69-1.96-1.13-1-1.05-2.17.03-3.16.77-.74,1.68-1.4,2.64-1.87,1.81-.87,4.03-1.21,6.09-1.24,2.03-.03,4.1.3,6.06.85,4.26,1.33,9.06,4.88,12.45,7.17.45.31,1.87.4,1.75.45-.2.08-.47.58-.64.75Z"/>
        <path class="cls-22" d="M39.38,236.88c13.23,6.61,21.37,18.35,26.21,32.97.58,1.77.11,1.02-.43.16-3.48-5.48-12.21-18.05-17.05-23.93-1.05-1.21-2.01-2.03-3.36-3.17-2.48-2.09-5.59-4.53-7.98-6.46-.32-.26-1.46-.99-1.18-.91.32.1,3.19,1.05,3.75,1.32,0,0,.03.01.04.02Z"/>
        <path class="cls-4" d="M36.04,211.06c-.44-.14-.9-.16-1.36-.14-1.17.05-2.96.35-4.32.56-.36.05-.77.1-1.1.11-.32,0-.49.02-.61-.13-.06-.46,1.44-1.33,1.99-1.62,2.15-1.2,4.74-1.29,7.06-.58,2.03.6,3.29,2.37,4.28,4.14.34.57.64,1.16.84,1.62.2.46.29.79.21.91-.68.54-5.47-4.65-6.96-4.87h-.03Z"/>
        <path class="cls-4" d="M38.28,211.31c.22.17.77-1.37,1.18-1.02.58.49,5.6,6.75,5.83,7.06.88,1.14,6.4,9.13,6.4,9.17-.03.04-2.37-1.86-2.67-2.23-.42-.52-3.12-3.8-3.51-4.34-.19-.26-7.3-8.68-7.24-8.63Z"/>
        <path class="cls-13" d="M38.47,264.45c.09-2.15.67-3.12,2.08-1.13,1.09,1.43,2.33,3.33,3.58,4.65.73.76,1.49,1.28,2.46,1.8,2.79,1.51,6.22,2.61,8.78,4.54,1.58,1.14,2.58,2.67,3.34,4.49.33.82.9,2.23.74,2.88-.23.55-1.34-.19-1.74-.35-2.1-1.02-4.8-2.65-7.1-3.47-1.27-.39-2.65-.01-3.94-.15-1.52-.08-2.39-1.42-3.18-2.57-1.09-1.62-2.41-3.57-3.45-5.18-1.08-1.64-1.62-3.46-1.58-5.48v-.04Z"/>
        <path class="cls-20" d="M84,250.32c-.14-.78-.16-6.39-.16-6.94,0-.43.25-.76.67-.85.37-.08.75-.14,1.13-.13.19,0,.24.06.22.24-.02.28-.05.55-.08.83-.05.43-.45,5.78-.45,7.06,0,1.04.26,2.02.69,2.96.34.75.74,1.46,1.12,2.18.1.19.71,1.43.76,1.48.19-.03,6.37-12.26,6.29-12.78-.04-.31-.1-6.88-.08-7.17.14-1.5.37-2.98.68-4.45.32-1.51.7-3.01,1.17-4.49.44-1.36.96-2.7,1.66-3.95.43-.77.93-1.48,1.58-2.08.38-.35.83-.6,1.33-.73.04-.01.09-.02.13-.02.09,0,.16.09.14.18-.02.09-.07.16-.13.22-.14.15-.27.3-.41.46-.52.59-.86,1.29-1.2,1.98-.58,1.16-1.11,2.35-1.57,3.57-.24.64-.43,1.3-.56,1.98-.27,1.37-.49,2.76-.69,4.14-.11.77-.22,1.53-.32,2.3-.12.94.17,5.84.26,6.25.16-.21.34-.45.5-.64,1.47-1.62,2.96-3.23,4.43-4.85.53-.59,2.94-3.17,2.95-3.18.25-.26.87-.94.9-.97.01-.01.11-.09.14-.11.04-.02.08-.03.12-.03.33,0,.53.22.73.42.2.2.13.44-.02.64-.18.26-14.02,19.03-14.02,19.08.01.03.03.06.06.07.07.01.92-.18.99-.2.06-.02,8.22-1.59,9.36-1.61.39,0,.63.19.86.44.07.08.06.19-.02.28-.11.12-.25.19-.39.27-1,.55-2.07.9-3.16,1.18-1.2.32-9.27,2.77-9.84,3.01-.25.11-1.56,4.5-2.32,6.04-.61,1.25.06.91-.87-3.49,0-.03-2.39-7.34-2.62-8.58Z"/>
        <path class="cls-8" d="M101.76,215.35c-1.02.09-1.98-.66-2.96-.9-1.89-.52-4.19.29-5.88,1.13-2.48,1.2-4.24,3.65-6.08,5.57-1.8,1.62,1.79-4.32,2-4.52,1.91-3.04,5.34-5.17,8.96-5.2,1.41.02,3.17.21,4.45,1.05.47.34.8.8.84,1.29.08.75-.55,1.52-1.3,1.59h-.03Z"/>
        <path class="cls-14" d="M93,250.74c1.54-2.94,13.19-17.44,13.9-17.46.43-.02-.4,4.03-.54,5.15-.27,1.5-10.9,13.05-12.62,13.86-.94.44-1.64.28-.74-1.55Z"/>
        <path class="cls-3" d="M91.85,274.21c.28-.35.62-.66.95-.97.5-.49,1.01-.97,1.54-1.43.59-.5,1.19-.99,1.8-1.45.52-.39,1.08-.74,1.6-1.14.43-.34.92-.6,1.4-.89.44-.27.89-.5,1.34-.74.54-.29,1.08-.56,1.67-.74,1.17-.31,2.34-.6,3.54-.76.22-.03.37.06.48.23.3.48.48.98.47,1.56-.04,1.12-.23,2.22-.59,3.25-.46,1.35-1.06,2.67-2.06,3.73-.65.69-1.29,1.43-2.1,1.96-.77.5-1.62.78-2.55.8-.82.01-1.64,0-2.46,0-2.17,0-4.22.49-6.15,1.47-1.23.62-2.26,1.52-3.35,2.34-.44.33-1.47,1.41-1.65,1.28-.17-.12-.1-.32-.03-.48.13-.33,5.23-6.81,6.17-8.03Z"/>
        <path class="cls-5" d="M44.34,257.2c.1.02.2.03.3.07.56.22,1.12.44,1.67.66.2.08.23.22.09.37-.24.27-.51.52-.73.82-.19.26-.33.55-.45.85-.04.1-.06.23-.04.34.05.3.7,3.68.77,3.91.07.22-.07.38-.3.35-.14-.02-.29-.06-.42-.11-.3-.11-3.17-1.92-3.57-2.55-.1-.17-.15-.35-.19-.53-.14-.63-.14-1.25.21-1.82.33-.54.75-1,1.23-1.42.29-.25.59-.48.88-.72.16-.14.33-.24.56-.22Z"/>
      </g>
    </g>
  </g>
</svg>